Coordinates
version=1
nRows=17
nColumns=36
inDegrees=yes

Units are S.I. units (second, meters, Newtons, ...)
If the header above contains a line with 'inDegrees', this indicates whether rotational values are in degrees (yes) or radians (no).

endheader
time	pelvis_tilt	pelvis_list	pelvis_rotation	pelvis_tx	pelvis_ty	pelvis_tz	hip_flexion_r	hip_adduction_r	hip_rotation_r	knee_angle_r	knee_angle_r_beta	ankle_angle_r	subtalar_angle_r	mtp_angle_r	hip_flexion_l	hip_adduction_l	hip_rotation_l	knee_angle_l	knee_angle_l_beta	ankle_angle_l	subtalar_angle_l	mtp_angle_l	lumbar_extension	lumbar_bending	lumbar_rotation	arm_flex_r	arm_add_r	arm_rot_r	elbow_flex_r	pro_sup_r	arm_flex_l	arm_add_l	arm_rot_l	elbow_flex_l	pro_sup_l
      1.18000000	     -6.19654284	      1.31030981	     -3.63214826	      1.09096909	      1.03107987	     -0.35929999	     27.37644262	      0.01971248	     -4.16268141	      5.06186813	      0.08834627	     -3.23632453	    -10.23499848	     -7.13086837	     -6.35717810	      1.99571361	     -9.54793612	      1.47556768	      0.02575351	      8.05273143	      8.93555126	     -7.13086837	    -10.07245690	    -23.88666340	     -9.58261857	     -8.28280326	     -6.51737060	      4.84524843	     44.89582035	    109.37525528	     22.20798370	    -22.91282922	      0.14158812	     57.52522029	    110.72373908
      1.19000000	     -6.39799256	      1.75719248	     -3.46396810	      1.10106560	      1.02859645	     -0.35974413	     27.38681986	     -0.26175783	     -4.12083207	      2.60860186	      0.04552869	     -2.18441957	     -7.49845058	     -7.14309420	     -6.71181305	      2.45718260	     -9.56164576	      1.53219231	      0.02674180	      8.31970531	      9.47856179	     -7.14309420	     -9.95465791	    -23.85056010	     -9.56924440	     -8.34746802	     -6.57995291	      4.63538799	     44.77665126	    109.48650427	     21.85290236	    -22.75703002	      0.26091451	     58.03149425	    110.78098403
      1.20000000	     -6.74188436	      2.28027641	     -3.36076488	      1.11096641	      1.02574275	     -0.36005903	     27.80187338	     -0.59307136	     -3.74675260	      0.85870960	      0.01498731	     -1.72769213	     -5.87672184	     -7.14624576	     -6.89273899	      2.99377193	     -9.36930634	      1.62385009	      0.02834153	      8.47516669	      9.67235506	     -7.14624576	     -9.64573553	    -23.88694651	     -9.41700382	     -8.41003570	     -6.64382264	      4.49337555	     44.64769193	    109.45772894	     21.52254152	    -22.57892445	      0.47270096	     58.41745034	    110.79239500
      1.21000000	     -7.13873212	      2.95471080	     -3.28442933	      1.12103200	      1.02268819	     -0.36059798	     28.82220726	     -1.14545254	     -4.92658462	      0.47155686	      0.00823022	      0.94597548	     -1.41070217	     -7.15413414	     -6.97473316	      3.71674521	     -9.36384893	      1.78128417	      0.03108927	      8.66973870	      9.88129863	     -7.15413414	     -9.26033591	    -24.06011438	     -9.33079517	     -8.41671400	     -6.64040510	      4.10972054	     44.37270939	    109.48338126	     20.95812162	    -22.49886329	      0.65391796	     58.96609699	    110.84407042
      1.22000000	     -7.26060567	      3.45520894	     -3.14348035	      1.13127071	      1.02008047	     -0.36118371	     29.47662884	     -1.56893825	     -5.95395837	      0.32776633	      0.00572060	      2.68858505	      1.77761839	     -7.16151170	     -7.38075566	      4.25036509	     -9.10864600	      1.94523279	      0.03395072	      8.86817292	     10.03567790	     -7.16151170	     -9.24619395	    -24.01912948	     -9.22885573	     -8.36065386	     -6.72998037	      3.91966740	     44.11937074	    109.51062472	     20.53683232	    -22.22701523	      0.71043866	     59.26782537	    110.84784671
      1.23000000	     -7.29307628	      3.76169990	     -3.02638234	      1.14173579	      1.01765307	     -0.36146910	     29.86335294	     -1.73029290	     -6.01136310	      0.26238371	      0.00457946	      2.83843569	      1.94271887	     -7.16213495	     -7.86907959	      4.55007846	     -9.03824628	      2.16396599	      0.03776833	      8.87219083	     10.06722608	     -7.16213495	     -9.30904183	    -23.73532250	     -9.06568244	     -8.32041201	     -6.90335486	      3.84999693	     44.02830177	    109.48244865	     20.11717020	    -21.94418509	      0.84903119	     59.27466657	    110.83652873
      1.24000000	     -7.26662842	      4.01880632	     -2.83139131	      1.15263332	      1.01538834	     -0.36170930	     29.98453296	     -1.91434271	     -5.96235375	      0.27166073	      0.00474137	      3.88456394	      3.52800375	     -7.16626940	     -8.42214210	      4.76949018	     -8.65983940	      2.47959125	      0.04327703	      9.26975664	     10.19737744	     -7.16626940	     -9.44230331	    -23.43660592	     -8.99980131	     -8.12852559	     -6.88193446	      3.45153300	     43.41402066	    109.41190533	     19.46572210	    -21.74108429	      0.97249886	     59.60241880	    110.83789480
      1.25000000	     -7.15251430	      4.09283093	     -2.59081853	      1.16395292	      1.01333767	     -0.36196461	     29.83027731	     -1.92528971	     -5.74623754	      0.32909520	      0.00574379	      3.96966010	      3.71340595	     -7.16828896	     -9.04406449	      4.77291761	     -8.46054479	      2.86575269	      0.05001682	      9.30895127	     10.28475864	     -7.16828896	     -9.63459312	    -22.86042980	     -8.95612367	     -8.05247363	     -7.02704989	      3.28984444	     43.17743327	    109.38055165	     18.78992804	    -21.44984476	      1.05588979	     59.51756678	    110.81785534
      1.26000000	     -6.82887894	      4.01621190	     -2.37184443	      1.17561525	      1.01161983	     -0.36197188	     29.28124826	     -1.77038419	     -4.89187582	      0.45181811	      0.00788571	      3.46065652	      2.48844964	     -7.18136451	     -9.86707235	      4.57470216	     -8.47402841	      3.36272377	      0.05869060	      9.74654982	     10.82922661	     -7.18136451	    -10.05409523	    -22.13350012	     -9.04029756	     -7.75025008	     -7.10385430	      3.08754590	     42.63635099	    109.43201163	     17.84028180	    -21.15300927	      0.70930876	     59.70231735	    110.83239088
      1.27000000	     -6.50973465	      3.86650254	     -2.15445474	      1.18747589	      1.00993534	     -0.36186552	     28.68776578	     -1.53767523	     -3.77038410	      0.74918739	      0.01307579	      2.49335575	      0.59947758	     -7.19158577	    -10.65512108	      4.28155087	     -8.40298901	      3.93932992	      0.06875428	     10.06539495	     11.18251132	     -7.19158577	    -10.42372935	    -21.31109224	     -9.00186932	     -7.49963454	     -7.21682606	      2.88411235	     42.11357798	    109.41889650	     16.97549915	    -20.84962700	      0.67640863	     59.56446906	    110.83905426
      1.28000000	     -6.21214045	      3.69453476	     -1.97465872	      1.19947805	      1.00825686	     -0.36156415	     28.24517255	     -1.27230506	     -2.82913988	      1.47494673	      0.02574268	      1.48910306	     -1.31136914	     -7.20068195	    -11.34450812	      3.94404955	     -8.38360623	      4.69376366	      0.08192163	     10.40886935	     11.46088134	     -7.20068195	    -10.71061760	    -20.47137163	     -8.92029287	     -7.22633939	     -7.26973269	      2.61164707	     41.52261137	    109.41761658	     16.05645216	    -20.56838164	      0.61190529	     59.29264592	    110.87610590
      1.29000000	     -5.94850711	      3.55129312	     -1.77870808	      1.21153468	      1.00660842	     -0.36144999	     28.05683751	     -1.10094403	     -2.48440545	      2.72397798	      0.04754238	      0.81621517	     -2.60339399	     -7.20577286	    -11.92223256	      3.62785444	     -8.34522272	      5.54626882	      0.09680065	     10.54275830	     11.52806829	     -7.20577286	    -10.97970891	    -19.60901368	     -8.79969814	     -6.97328122	     -7.39869579	      2.33658511	     40.95411427	    109.38354818	     15.13817061	    -20.18240071	      0.64916690	     58.90570335	    110.87994978
      1.30000000	     -5.71583082	      3.36634523	     -1.60185248	      1.22368692	      1.00510941	     -0.36110938	     27.95305281	     -0.89161137	     -2.20906601	      4.09907112	      0.07154229	     -0.26501691	     -4.09562680	     -7.21076413	    -12.39675426	      3.23563711	     -8.34480100	      6.53529874	      0.11406248	     10.60193166	     11.62438481	     -7.21076413	    -11.17231721	    -18.71595143	     -8.67879577	     -6.66626393	     -7.46314069	      2.01546360	     40.32860899	    109.33612508	     14.15305563	    -19.82563027	      0.62959515	     58.41414799	    110.86598409
      1.31000000	     -5.42433113	      3.14305577	     -1.50819053	      1.23597182	      1.00395606	     -0.36054779	     27.79464564	     -0.65165111	     -1.91779807	      5.51825339	      0.09631169	     -0.92072700	     -4.53715695	     -7.21188512	    -12.97778127	      2.82623243	     -8.05642367	      7.42884444	      0.12965780	     10.35232892	     11.64375520	     -7.21188512	    -11.43443750	    -17.77832224	     -8.47832692	     -6.44039828	     -7.57423367	      1.81362741	     39.99095192	    109.29787618	     13.13598205	    -19.54494636	      0.75182484	     57.89414511	    110.83930097
      1.32000000	     -5.33001766	      2.80999145	     -1.31031010	      1.24823766	      1.00289390	     -0.35976997	     27.85454438	     -0.28543702	     -1.63817137	      6.87630464	      0.12001416	     -3.49255048	     -8.03662930	     -7.22330769	    -12.95412502	      2.12050174	     -8.60203991	      9.04318088	      0.15783328	     10.43922707	     12.08691677	     -7.22330769	    -11.41992801	    -16.77273741	     -8.35638244	     -6.02260784	     -7.49019894	      1.28733317	     38.95924278	    109.22078052	     12.02667007	    -19.12240019	      0.50985147	     57.13999563	    110.81046890
      1.33000000	     -5.14688188	      2.46532417	     -1.13909190	      1.26061136	      1.00235707	     -0.35901930	     27.92875899	      0.00261263	     -1.80294082	      8.53751710	      0.14900778	     -4.62971935	     -9.43064246	     -7.23130752	    -13.04709991	      1.44154465	     -8.70683645	     10.56382052	      0.18437345	     10.05937091	     12.14029339	     -7.23130752	    -11.52515240	    -15.72728153	     -8.18039850	     -5.66385243	     -7.45689048	      0.81636536	     38.17565901	    109.14216624	     10.97905704	    -18.72911013	      0.46940858	     56.21514503	    110.76129489
      1.34000000	     -4.76272587	      2.05766191	     -1.01289652	      1.27305149	      1.00250583	     -0.35814172	     27.80598691	      0.33160066	     -1.89975982	     10.35292333	      0.18069260	     -5.01397373	    -10.01110781	     -7.23264314	    -13.39043677	      0.73146103	     -8.47195141	     11.94928603	      0.20855438	      9.33436686	     12.04168486	     -7.23264314	    -11.91751873	    -14.62441627	     -7.95318513	     -5.34676802	     -7.50166365	      0.53118649	     37.71162469	    109.08444517	      9.92945217	    -18.35362338	      0.52903327	     55.41497481	    110.70298110
